<?xml version="1.0" standalone="no"?>
<!DOCTYPE svg PUBLIC "-//W3C//DTD SVG 20010904//EN"
 "http://www.w3.org/TR/2001/REC-SVG-20010904/DTD/svg10.dtd">
<svg version="1.0" xmlns="http://www.w3.org/2000/svg"
 width="126.000000pt" height="126.000000pt" viewBox="0 0 126.000000 126.000000"
 preserveAspectRatio="xMidYMid meet">
<metadata>
Created by potrace 1.14, written by Peter Selinger 2001-2017
</metadata>
<g transform="translate(0.000000,126.000000) scale(0.100000,-0.100000)"
fill="#000000" stroke="none">
<path d="M525 1222 c-2 -3 -15 -6 -27 -8 -13 -3 -37 -7 -54 -10 -19 -4 -34 -1
-39 6 -5 8 -11 8 -22 -2 -16 -13 -29 -17 -76 -22 -15 -2 -36 -11 -47 -21 -10
-9 -24 -14 -31 -9 -7 4 -10 3 -6 -3 10 -15 -18 -24 -32 -10 -10 10 -14 0 -10
-29 0 -3 -9 -14 -21 -24 -12 -11 -19 -24 -15 -29 3 -6 1 -11 -5 -11 -6 0 -9
-4 -5 -9 3 -6 -5 -15 -17 -22 -13 -7 -29 -21 -36 -31 -7 -10 -16 -16 -20 -14
-9 6 -44 -20 -42 -31 1 -4 8 -12 16 -16 12 -7 11 -12 -8 -27 -13 -11 -17 -19
-10 -20 7 0 10 -5 7 -10 -4 -6 -1 -18 7 -27 7 -9 8 -14 2 -10 -7 4 -15 0 -18
-9 -4 -10 -2 -13 6 -8 6 4 4 -3 -4 -15 -17 -24 -12 -63 18 -128 8 -17 14 -40
14 -51 0 -50 60 -189 107 -246 35 -42 82 -152 76 -176 -6 -24 0 -27 242 -115
159 -58 171 -61 193 -47 21 14 31 14 95 -3 40 -10 86 -18 102 -17 40 3 75 43
75 88 0 19 7 51 15 72 9 20 17 49 19 65 2 15 5 30 8 32 4 4 99 18 126 18 6 0
12 4 12 9 0 5 4 6 10 3 13 -8 86 31 104 56 8 12 13 29 11 38 -10 49 -18 71
-28 71 -6 0 -8 3 -4 6 3 4 1 12 -6 19 -7 7 -21 25 -31 40 -45 61 -134 155
-148 155 -6 0 -8 22 -5 50 3 27 2 50 -2 52 -3 2 -14 19 -25 38 -10 19 -31 59
-47 87 -16 29 -25 52 -21 52 19 -3 25 2 12 11 -12 8 -12 10 -1 10 11 0 11 3 0
17 -12 15 -12 16 1 8 20 -12 53 -17 46 -7 -2 4 5 19 15 32 17 20 18 21 10 4
-12 -25 -3 -38 16 -23 10 9 13 8 13 -1 0 -8 3 -11 6 -8 3 3 -1 16 -8 28 -19
32 -56 69 -62 62 -3 -3 -6 4 -6 16 0 15 -5 20 -15 16 -9 -4 -15 0 -15 7 0 9
-3 10 -8 4 -8 -12 -44 -16 -37 -5 5 8 -27 19 -80 27 -30 4 -123 37 -159 55
-13 7 -16 6 -11 -2 5 -9 1 -10 -14 -5 -28 8 -99 13 -106 7z"/>
<path d="M108 1051 c-16 -16 -16 -17 0 -18 11 -1 18 6 19 18 2 23 3 22 -19 0z"/>
<path d="M953 983 c4 -3 2 -12 -5 -20 -8 -11 -7 -12 5 -7 22 8 30 34 10 34 -9
0 -13 -3 -10 -7z"/>
</g>
</svg>
