<?xml version="1.0" standalone="no"?>
<!DOCTYPE svg PUBLIC "-//W3C//DTD SVG 20010904//EN"
 "http://www.w3.org/TR/2001/REC-SVG-20010904/DTD/svg10.dtd">
<svg version="1.0" xmlns="http://www.w3.org/2000/svg"
 width="112.000000pt" height="112.000000pt" viewBox="0 0 112.000000 112.000000"
 preserveAspectRatio="xMidYMid meet">
<metadata>
Created by potrace 1.14, written by Peter Selinger 2001-2017
</metadata>
<g transform="translate(0.000000,112.000000) scale(0.100000,-0.100000)"
fill="#000000" stroke="none">
<path d="M628 986 c-1 -2 -30 -7 -63 -11 -96 -11 -99 -12 -120 -20 -11 -4 -28
-15 -37 -23 -10 -8 -18 -12 -18 -8 0 4 -12 -5 -27 -19 -26 -24 -45 -31 -68
-25 -27 7 -65 12 -116 15 -30 2 -60 5 -65 6 -5 1 -11 1 -14 0 -3 -1 -20 -4
-38 -5 -52 -6 -61 -19 -56 -89 3 -34 5 -84 5 -112 1 -50 21 -96 62 -140 17
-19 17 -20 -3 -29 -11 -5 -20 -15 -20 -23 0 -7 -3 -13 -8 -13 -4 0 -8 -18 -8
-40 -1 -21 2 -37 7 -35 4 3 16 -11 28 -30 11 -19 25 -35 31 -35 6 0 9 -4 6 -9
-3 -5 4 -16 17 -24 12 -8 33 -24 47 -36 50 -41 100 -75 100 -66 0 3 10 0 22
-6 21 -11 76 -20 153 -22 22 -1 43 -6 46 -10 3 -4 18 -3 32 2 15 6 27 7 27 2
0 -10 131 -8 148 3 7 4 12 2 12 -4 0 -6 5 -8 11 -5 10 7 82 12 267 19 51 2 96
6 99 10 3 3 12 1 18 -4 10 -8 13 40 14 217 1 263 -4 322 -28 331 -20 7 -80 47
-101 65 -28 25 -87 57 -93 50 -4 -3 -7 -1 -7 4 0 6 -21 21 -47 34 -27 12 -50
26 -53 29 -3 4 -12 7 -20 7 -8 0 -35 9 -60 20 -57 25 -77 32 -82 29z"/>
</g>
</svg>
